<svg xmlns="http://www.w3.org/2000/svg">
	<symbol id="burger" viewBox="0 0 44 44">
		<g clip-path="url(#clip0_0_161)">
			<path d="M44 20.3359C44 18.6467 42.9108 17.2079 41.3982 16.6825C41.1658 11.4417 39.2092 7.41987 35.573 4.71723C32.2543 2.25065 27.6878 1 22 1C16.3122 1 11.7457 2.25065 8.42703 4.71731C4.79084 7.41987 2.83422 11.4418 2.60176 16.6826C1.08917 17.2079 0 18.6467 0 20.3359C0 21.3257 0.374172 22.2293 0.987852 22.9141C0.374172 23.5988 0 24.5024 0 25.4922C0 27.1918 1.10258 28.6378 2.6296 29.1551C3.18252 35.0454 8.18967 39.6719 14.2656 39.6719H29.7344C35.8103 39.6719 40.8175 35.0454 41.3704 29.1551C42.8974 28.6378 44 27.1918 44 25.4922C44 24.5024 43.6258 23.5988 43.0121 22.9141C43.6258 22.2293 44 21.3257 44 20.3359ZM22 3.57812C29.3933 3.57812 38.1513 5.85719 38.8034 16.4688H5.19655C5.84873 5.85719 14.6067 3.57812 22 3.57812ZM3.86719 19.0469H40.1328C40.8436 19.0469 41.4219 19.6251 41.4219 20.3359C41.4219 21.0467 40.8436 21.625 40.1328 21.625H3.86719C3.1564 21.625 2.57812 21.0467 2.57812 20.3359C2.57812 19.6251 3.1564 19.0469 3.86719 19.0469ZM29.7344 37.0938H14.2656C9.68456 37.0938 5.88302 33.7265 5.24958 29.3594H6.44531C7.30709 29.3594 7.57943 29.6525 8.12187 30.2366C8.78857 30.9545 9.70166 31.9375 11.6875 31.9375C13.6874 31.9375 14.5766 30.9444 15.226 30.2193C15.7387 29.6468 15.996 29.3594 16.8438 29.3594C17.6915 29.3594 17.9488 29.6468 18.4615 30.2193C19.1109 30.9444 20.0001 31.9375 22 31.9375C23.9999 31.9375 24.8891 30.9444 25.5385 30.2193C26.0512 29.6468 26.3085 29.3594 27.1562 29.3594C28.004 29.3594 28.2613 29.6468 28.774 30.2193C29.4234 30.9444 30.3126 31.9375 32.3125 31.9375C34.3124 31.9375 35.2016 30.9444 35.851 30.2193C36.3637 29.6468 36.621 29.3594 37.4688 29.3594H38.7504C38.117 33.7265 34.3154 37.0938 29.7344 37.0938ZM40.1328 26.7812H37.4688C35.4689 26.7812 34.5796 27.7743 33.9303 28.4995C33.4176 29.072 33.1603 29.3594 32.3125 29.3594C31.4647 29.3594 31.2074 29.072 30.6947 28.4995C30.0454 27.7743 29.1561 26.7812 27.1562 26.7812C25.1564 26.7812 24.2671 27.7743 23.6178 28.4995C23.1051 29.072 22.8478 29.3594 22 29.3594C21.1522 29.3594 20.8949 29.072 20.3822 28.4995C19.7329 27.7743 18.8436 26.7812 16.8438 26.7812C14.8439 26.7812 13.9546 27.7743 13.3053 28.4995C12.7926 29.072 12.5353 29.3594 11.6875 29.3594C10.8257 29.3594 10.5534 29.0662 10.0109 28.4821C9.34424 27.7643 8.43116 26.7812 6.44531 26.7812H3.86719C3.1564 26.7812 2.57812 26.203 2.57812 25.4922C2.57812 24.7814 3.1564 24.2031 3.86719 24.2031H40.1328C40.8436 24.2031 41.4219 24.7814 41.4219 25.4922C41.4219 26.203 40.8436 26.7812 40.1328 26.7812Z" />
			<path d="M14.2656 13.8906C14.9776 13.8906 15.5547 13.3135 15.5547 12.6016C15.5547 11.8896 14.9776 11.3125 14.2656 11.3125C13.5537 11.3125 12.9766 11.8896 12.9766 12.6016C12.9766 13.3135 13.5537 13.8906 14.2656 13.8906Z" />
			<path d="M29.7344 13.8906C30.4463 13.8906 31.0234 13.3135 31.0234 12.6016C31.0234 11.8896 30.4463 11.3125 29.7344 11.3125C29.0224 11.3125 28.4453 11.8896 28.4453 12.6016C28.4453 13.3135 29.0224 13.8906 29.7344 13.8906Z" />
			<path d="M24.5781 11.3125C25.2901 11.3125 25.8672 10.7354 25.8672 10.0234C25.8672 9.31151 25.2901 8.73438 24.5781 8.73438C23.8662 8.73438 23.2891 9.31151 23.2891 10.0234C23.2891 10.7354 23.8662 11.3125 24.5781 11.3125Z" />
			<path d="M19.4219 8.73438C20.1338 8.73438 20.7109 8.15724 20.7109 7.44531C20.7109 6.73338 20.1338 6.15625 19.4219 6.15625C18.7099 6.15625 18.1328 6.73338 18.1328 7.44531C18.1328 8.15724 18.7099 8.73438 19.4219 8.73438Z" />
		</g>
		<defs>
			<clipPath id="clip0_0_161">
				<rect width="44" height="44" />
			</clipPath>
		</defs>
	</symbol>
	<symbol id="chicken" viewBox="0 0 44 34">
		<path fill-rule="evenodd" clip-rule="evenodd" d="M17.2563 8.56679H15.1315C13.8786 8.56679 12.8593 7.54748 12.8593 6.29459C12.8593 5.0418 13.8786 4.0225 15.1315 4.0225H19.843C20.385 4.0225 20.826 3.58147 20.826 3.03938C20.826 2.49737 20.3851 2.05634 19.843 2.05634H16.0738C15.7178 2.05634 15.4293 1.76775 15.4293 1.4118C15.4293 1.05585 15.7178 0.767273 16.0738 0.767273H19.843C21.0958 0.767273 22.1151 1.78649 22.1151 3.03938C22.1151 4.29225 21.0959 5.31156 19.843 5.31156H15.1315C14.5894 5.31156 14.1484 5.7525 14.1484 6.29459C14.1484 6.83669 14.5894 7.27773 15.1315 7.27773H17.2563C18.5184 7.27773 19.5453 8.3045 19.5453 9.56667V11.0316C19.5453 11.3875 19.2567 11.6761 18.9007 11.6761C18.5448 11.6761 18.2562 11.3875 18.2562 11.0316V9.56667C18.2562 9.0153 17.8077 8.56679 17.2563 8.56679ZM9.49713 12.8925H7.38858C6.14255 12.8925 5.12894 11.8789 5.12894 10.6329C5.12894 9.38689 6.14255 8.37325 7.38858 8.37325H9.85385C10.2098 8.37325 10.4984 8.66183 10.4984 9.01778C10.4984 9.37373 10.2098 9.66232 9.85385 9.66232H7.38858C6.85342 9.66232 6.418 10.0978 6.418 10.6329C6.418 11.168 6.85333 11.6035 7.38858 11.6035H9.49713C10.7523 11.6035 11.7734 12.6247 11.7734 13.8799V15.3336C11.7734 15.6895 11.4849 15.9781 11.1289 15.9781C10.7729 15.9781 10.4844 15.6895 10.4844 15.3336V13.8799C10.4844 13.3355 10.0414 12.8925 9.49713 12.8925ZM25.6523 21.8125C26.0083 21.8125 26.2969 21.5239 26.2969 21.168C26.2969 20.812 26.0083 20.5234 25.6523 20.5234C25.2964 20.5234 25.0078 20.812 25.0078 21.168C25.0078 21.5239 25.2964 21.8125 25.6523 21.8125ZM29.4766 22.6289C29.4766 22.9849 29.188 23.2734 28.832 23.2734C28.4761 23.2734 28.1875 22.9849 28.1875 22.6289C28.1875 22.2729 28.4761 21.9844 28.832 21.9844C29.188 21.9844 29.4766 22.2729 29.4766 22.6289ZM30.7227 25.5078C31.0786 25.5078 31.3672 25.2193 31.3672 24.8633C31.3672 24.5073 31.0786 24.2188 30.7227 24.2188C30.3667 24.2188 30.0781 24.5073 30.0781 24.8633C30.0781 25.2193 30.3667 25.5078 30.7227 25.5078ZM28.7031 19.6211C28.7031 19.9771 28.4146 20.2656 28.0586 20.2656C27.7026 20.2656 27.4141 19.9771 27.4141 19.6211C27.4141 19.2651 27.7026 18.9766 28.0586 18.9766C28.4146 18.9766 28.7031 19.2651 28.7031 19.6211ZM25.9102 25.9375C26.2661 25.9375 26.5547 25.6489 26.5547 25.293C26.5547 24.937 26.2661 24.6485 25.9102 24.6485C25.5542 24.6485 25.2656 24.937 25.2656 25.293C25.2656 25.6489 25.5542 25.9375 25.9102 25.9375ZM41.083 17.811H42.9114C43.5116 17.811 44 18.2993 44 18.8996V20.7646C44 21.3648 43.5116 21.8532 42.9114 21.8532H38.8117V22.7184C38.8117 23.8083 37.925 24.695 36.8351 24.695H36.1474V25.9214C36.594 25.9302 37.0148 26.0462 37.3842 26.2463C37.4554 26.1658 37.5283 26.0866 37.6048 26.0101C38.857 24.758 40.6466 24.1993 42.3925 24.5153C42.657 24.5632 42.8639 24.7702 42.9119 25.0347C43.143 26.3111 42.905 27.6101 42.2716 28.7062H42.9099C43.3354 28.7062 43.7126 28.9452 43.8942 29.33C44.0759 29.7148 44.0207 30.1579 43.7504 30.4865L41.8169 32.8359C41.6095 33.088 41.3031 33.2327 40.9764 33.2327H34.718C34.362 33.2327 34.0735 32.9442 34.0735 32.5882C34.0735 32.2323 34.362 31.9437 34.718 31.9437H40.8817L42.4853 29.9952H2.94147L4.54498 31.9437H31.7102C32.0663 31.9437 32.3548 32.2323 32.3548 32.5882C32.3548 32.9442 32.0663 33.2327 31.7102 33.2327H4.45035C4.12372 33.2327 3.81744 33.0881 3.6098 32.836L1.6763 30.4864C1.40585 30.1579 1.35077 29.7148 1.53244 29.33C1.71411 28.9452 2.09128 28.7062 2.51685 28.7062H3.27097C3.27072 28.6973 3.27032 28.6884 3.26993 28.6795C3.26929 28.6657 3.26865 28.6518 3.26865 28.6378C3.26865 27.1391 4.48792 25.9198 5.98666 25.9198C6.54492 25.9198 7.06396 26.0895 7.49606 26.3792C7.75851 26.2031 8.05347 26.0723 8.36945 25.9961C8.35889 25.7989 8.35321 25.601 8.35321 25.4022C8.35321 25.1911 8.35974 24.9815 8.37177 24.7733L6.35086 24.0871C6.0592 23.988 5.84357 23.751 5.76538 23.4637H4.06064C3.75058 24.2471 2.98093 24.8007 2.10367 24.8007C0.943665 24.8007 0 23.857 0 22.6971C0 22.2931 0.114716 21.9047 0.325439 21.5722C0.114716 21.2398 0 20.8515 0 20.4475C0 19.5376 0.580841 18.7609 1.39124 18.4683C1.37756 18.3717 1.36975 18.2738 1.36975 18.1747C1.36975 17.0147 2.31345 16.071 3.47342 16.071C4.35068 16.071 5.12033 16.6246 5.43039 17.408H7.32315C7.49039 17.2135 7.73755 17.0896 8.01358 17.0896H12.0633C14.0692 15.2243 16.7427 13.9811 19.7184 13.7044C19.7122 13.6334 19.709 13.5616 19.709 13.489C19.709 12.2453 20.6207 11.2112 21.8108 11.0187C23.1261 8.64964 25.6958 6.87022 28.812 6.15994V6.11079C28.812 5.75483 29.1005 5.46626 29.4565 5.46626C29.7516 5.46626 29.9998 5.66477 30.0762 5.9353C30.4687 5.8846 30.8681 5.85177 31.2726 5.83501C31.3759 5.61725 31.5973 5.46626 31.8545 5.46626C32.1116 5.46626 32.3329 5.61725 32.4363 5.83501C32.8407 5.85177 33.2401 5.8846 33.6326 5.93521C33.7091 5.66468 33.9572 5.46626 34.2523 5.46626C34.6083 5.46626 34.8968 5.75483 34.8968 6.11079V6.15994C38.0131 6.87022 40.5827 8.64955 41.8981 11.0187C43.0882 11.2112 44 12.2453 44 13.489C44 14.7014 43.1331 15.7151 41.9868 15.9433L41.083 17.811ZM4.56003 28.7062H6.29053C6.28995 28.6834 6.28821 28.6609 6.28815 28.6379C6.28815 28.1738 6.40536 27.7366 6.61127 27.354C6.42255 27.2615 6.21078 27.209 5.98666 27.209C5.1987 27.209 4.55771 27.85 4.55771 28.6379C4.55771 28.6609 4.5589 28.6836 4.56003 28.7062ZM41.7005 25.7268C40.5223 25.6483 39.3595 26.0786 38.5163 26.9217C38.4833 26.9547 38.451 26.9884 38.4193 27.0225C38.3925 27.0514 38.3662 27.0806 38.3402 27.1101C38.4893 27.3287 38.6075 27.5699 38.6882 27.8275L39.6015 26.9142C39.8533 26.6625 40.2613 26.6625 40.5131 26.9142C40.7648 27.1658 40.7648 27.5739 40.5131 27.8256L39.6325 28.7062H40.6953C41.412 27.8848 41.7727 26.8121 41.7005 25.7268ZM28.812 7.49017C27.6053 7.79851 26.4787 8.2887 25.5031 8.94225C24.5528 9.57896 23.7785 10.3478 23.2144 11.1983C23.4322 11.2941 23.6361 11.4201 23.8189 11.5733C24.2637 11.2006 24.8316 10.9862 25.426 10.9862C26.0204 10.9862 26.5884 11.2006 27.0331 11.5733C27.4778 11.2005 28.0458 10.9862 28.6402 10.9862C29.2346 10.9862 29.8025 11.2006 30.2473 11.5733C30.692 11.2005 31.26 10.9862 31.8545 10.9862C32.4488 10.9862 33.0168 11.2006 33.4616 11.5733C33.9063 11.2005 34.4742 10.9862 35.0687 10.9862C35.663 10.9862 36.231 11.2006 36.6758 11.5733C37.1205 11.2005 37.6885 10.9862 38.2829 10.9862C38.8773 10.9862 39.4452 11.2006 39.89 11.5733C40.0729 11.4201 40.2768 11.2941 40.4945 11.1983C39.9304 10.3479 39.1561 9.57905 38.2057 8.94234C37.2302 8.2887 36.1035 7.79851 34.8968 7.49017V8.15343C34.8968 8.50938 34.6083 8.79797 34.2523 8.79797C33.8962 8.79797 33.6078 8.50938 33.6078 8.15343V7.23459C33.2424 7.18269 32.8721 7.14831 32.499 7.12906V8.15343C32.499 8.50938 32.2105 8.79797 31.8545 8.79797C31.4984 8.79797 31.2099 8.50938 31.2099 8.15343V7.12906C30.8368 7.14822 30.4665 7.18259 30.1011 7.23459V8.15343C30.1011 8.50938 29.8126 8.79797 29.4565 8.79797C29.1005 8.79797 28.812 8.50938 28.812 8.15343V7.49017ZM23.2612 12.8822C23.0441 12.5078 22.642 12.2752 22.2117 12.2752C21.5424 12.2752 20.998 12.8196 20.998 13.4889C20.998 13.5422 21.0026 13.5944 21.0094 13.6459C22.7569 13.6492 24.4222 13.9848 25.9363 14.588C26.1583 14.4842 26.3486 14.3143 26.4755 14.0955C26.5908 13.8966 26.8031 13.7743 27.033 13.7743C27.2629 13.7743 27.4753 13.8967 27.5906 14.0955C27.8076 14.4699 28.2098 14.7026 28.6401 14.7026C29.0703 14.7026 29.4725 14.4699 29.6898 14.0954C29.805 13.8966 30.0175 13.7743 30.2473 13.7743C30.4771 13.7743 30.6895 13.8967 30.8048 14.0955C31.0219 14.4699 31.4241 14.7026 31.8544 14.7026C32.2846 14.7026 32.6868 14.4699 32.904 14.0954C33.0193 13.8966 33.2317 13.7743 33.4615 13.7743C33.6914 13.7743 33.9037 13.8967 34.019 14.0955C34.2361 14.4699 34.6383 14.7026 35.0686 14.7026C35.4988 14.7026 35.901 14.4699 36.1183 14.0954C36.2335 13.8966 36.4459 13.7743 36.6757 13.7743C36.9056 13.7743 37.118 13.8967 37.2333 14.0955C37.4503 14.4699 37.8525 14.7026 38.2828 14.7026C38.713 14.7026 39.1152 14.4699 39.3325 14.0954C39.4477 13.8966 39.6602 13.7743 39.89 13.7743C40.1198 13.7743 40.3322 13.8967 40.4475 14.0955C40.6646 14.4699 41.0668 14.7026 41.4971 14.7026C42.1663 14.7026 42.7108 14.1581 42.7108 13.4889C42.7108 12.8196 42.1663 12.2752 41.4971 12.2752C41.0668 12.2752 40.6646 12.5078 40.4475 12.8822C40.3322 13.0811 40.1198 13.2035 39.89 13.2035C39.6602 13.2035 39.4477 13.0811 39.3325 12.8823C39.1152 12.5078 38.713 12.2752 38.2828 12.2752C37.8525 12.2752 37.4503 12.5078 37.2333 12.8822C37.118 13.0811 36.9056 13.2035 36.6757 13.2035C36.4459 13.2035 36.2336 13.0811 36.1183 12.8823C35.901 12.5078 35.4988 12.2752 35.0686 12.2752C34.6383 12.2752 34.2361 12.5078 34.019 12.8822C33.9037 13.0811 33.6914 13.2035 33.4615 13.2035C33.2317 13.2035 33.0193 13.0811 32.904 12.8823C32.6868 12.5078 32.2846 12.2752 31.8544 12.2752C31.4241 12.2752 31.0219 12.5078 30.8048 12.8822C30.6895 13.0811 30.4771 13.2035 30.2473 13.2035C30.0175 13.2035 29.8051 13.0811 29.6898 12.8823C29.4725 12.5078 29.0703 12.2752 28.6401 12.2752C28.2098 12.2752 27.8076 12.5078 27.5906 12.8822C27.4753 13.0811 27.2629 13.2035 27.033 13.2035C26.8031 13.2035 26.5908 13.081 26.4755 12.8822C26.2584 12.5078 25.8562 12.2752 25.4259 12.2752C24.9957 12.2752 24.5935 12.5078 24.3763 12.8823C24.261 13.0811 24.0486 13.2035 23.8188 13.2035C23.5889 13.2035 23.3766 13.081 23.2612 12.8822ZM10.8635 18.3786H8.39163V19.3624H10.1518C10.3712 19.0227 10.6095 18.695 10.8635 18.3786ZM3.5567 22.1747H5.73282L5.73288 20.9698H3.5567C3.22147 20.9698 2.94217 20.7128 2.9144 20.3786C2.87967 19.9604 2.52356 19.6328 2.10376 19.6328C1.65454 19.6328 1.28915 19.9982 1.28915 20.4474C1.28915 20.691 1.397 20.92 1.58511 21.0756C1.73309 21.1981 1.81879 21.3801 1.81879 21.5722C1.81879 21.7644 1.73309 21.9464 1.58511 22.0689C1.397 22.2245 1.28915 22.4535 1.28915 22.6971C1.28915 23.1463 1.65454 23.5117 2.10376 23.5117C2.52356 23.5117 2.87967 23.1841 2.9144 22.7658C2.94217 22.4317 3.22147 22.1747 3.5567 22.1747ZM4.06064 19.6808H5.95331C6.12054 19.4864 6.3678 19.3624 6.64383 19.3624H7.10257V18.697H4.92636C4.59113 18.697 4.31183 18.44 4.28406 18.1059C4.24927 17.6877 3.89313 17.36 3.47333 17.36C3.02414 17.36 2.65872 17.7254 2.65872 18.1746C2.65872 18.2635 2.67343 18.3505 2.70093 18.4328C3.31778 18.6185 3.82361 19.082 4.06064 19.6808ZM7.57959 28.7062H10.433C10.434 28.6836 10.4353 28.6609 10.4352 28.6379C10.4352 27.85 9.79422 27.209 9.00626 27.209C8.21829 27.209 7.57727 27.85 7.57727 28.6379C7.57727 28.6609 7.57849 28.6836 7.57959 28.7062ZM28.0679 28.7062H30.3116C30.3114 28.6974 30.3109 28.6886 30.3105 28.6798C30.3099 28.6659 30.3092 28.652 30.3093 28.6379C30.3093 28.2811 30.3791 27.9405 30.5046 27.628C30.2459 27.3692 29.8885 27.209 29.4946 27.209C28.7066 27.209 28.0656 27.85 28.0656 28.6379C28.0656 28.6588 28.0666 28.6795 28.0676 28.7001L28.0679 28.7062ZM26.7765 28.6378C26.7765 27.1391 27.9958 25.9198 29.4946 25.9198C30.1685 25.9198 30.7855 26.1669 31.2609 26.5746C31.5596 26.3184 31.9142 26.1258 32.3036 26.0179C32.3166 25.8136 32.3239 25.6084 32.3239 25.4021C32.3239 19.6303 27.2364 14.9345 20.9831 14.9345C17.1654 14.9345 13.7835 16.6856 11.7273 19.3624H17.5715C18.0403 19.3624 18.5023 19.441 18.9446 19.5959C19.2805 19.7137 19.4575 20.0814 19.3397 20.4174C19.222 20.7534 18.8543 20.9305 18.5182 20.8125C18.2133 20.7056 17.8948 20.6515 17.5715 20.6515H7.02194V22.9534L16.6512 26.2233C17.5359 26.5236 18.479 26.3839 19.2383 25.8397C19.9978 25.2956 20.4333 24.4476 20.4333 23.5133C20.4333 23.1789 20.3761 22.8512 20.2632 22.5394C20.142 22.2046 20.3151 21.8351 20.6498 21.7139C20.9846 21.5928 21.3541 21.7658 21.4753 22.1006C21.6392 22.5536 21.7223 23.0289 21.7223 23.5134C21.7223 24.8685 21.0906 26.0984 19.9891 26.8877C19.2687 27.4038 18.4345 27.6692 17.5847 27.6692C17.1349 27.6692 16.6807 27.5948 16.2366 27.444L9.6445 25.2055C9.64322 25.271 9.64227 25.3365 9.64227 25.4022C9.64227 25.6024 9.64914 25.8017 9.66135 26.0001C10.8446 26.2941 11.7244 27.3649 11.7244 28.6378C11.7244 28.6518 11.7237 28.6656 11.7231 28.6794C11.7227 28.6883 11.7223 28.6972 11.722 28.7062H26.7788C26.7786 28.6973 26.7782 28.6884 26.7778 28.6795C26.7771 28.6657 26.7765 28.6518 26.7765 28.6378ZM31.6006 28.7062H34.454C34.4547 28.691 34.4555 28.6757 34.456 28.6603C34.4562 28.6529 34.4563 28.6454 34.4563 28.6379C34.4563 27.85 33.8152 27.209 33.0273 27.209C32.2393 27.209 31.5983 27.85 31.5983 28.6379C31.5983 28.6588 31.5993 28.6795 31.6003 28.7001L31.6006 28.7062ZM34.5611 26.3955C34.6559 26.3305 34.7555 26.2726 34.8583 26.2197V24.6951H33.5878C33.6028 24.9293 33.6128 25.1647 33.6128 25.4023C33.6128 25.5962 33.6073 25.7893 33.5974 25.9816C33.9482 26.0569 34.2745 26.1989 34.5611 26.3955ZM37.5219 28.6723C37.5223 28.6608 37.5226 28.6494 37.5226 28.6378C37.5226 27.8499 36.8816 27.2089 36.0937 27.2089C35.8547 27.2089 35.6296 27.268 35.4317 27.3723C35.6316 27.7505 35.7454 28.1811 35.7454 28.6378C35.7454 28.6471 35.7451 28.6563 35.7447 28.6655C35.7441 28.6791 35.7434 28.6926 35.743 28.7062H37.5203C37.5209 28.6949 37.5215 28.6836 37.5219 28.6723ZM36.8351 23.4061C37.2142 23.4061 37.5226 23.0976 37.5226 22.7185V21.8532H33.0241C33.1959 22.3568 33.33 22.8758 33.428 23.4061H36.8351ZM32.4932 20.5641H42.7109V19.1H37.3828C37.0268 19.1 36.7383 18.8114 36.7383 18.4555C36.7383 18.0995 37.0268 17.8109 37.3828 17.8109H39.6508L40.6106 15.8273C40.3489 15.7274 40.105 15.5847 39.89 15.4045C39.4451 15.7772 38.8772 15.9916 38.2828 15.9916C37.6885 15.9916 37.1205 15.7772 36.6757 15.4045C36.2309 15.7772 35.6629 15.9916 35.0686 15.9916C34.4743 15.9916 33.9062 15.7772 33.4615 15.4045C33.0167 15.7772 32.4487 15.9916 31.8544 15.9916C31.26 15.9916 30.692 15.7772 30.2473 15.4045C29.8024 15.7772 29.2345 15.9916 28.6401 15.9916C28.6074 15.9916 28.5747 15.9907 28.5421 15.9894C29.3059 16.5222 30.0022 17.134 30.6187 17.8109H34.375C34.731 17.8109 35.0195 18.0995 35.0195 18.4555C35.0195 18.8114 34.731 19.1 34.375 19.1H31.6404C31.9601 19.5669 32.2456 20.0558 32.4932 20.5641Z" />
	</symbol>
	<symbol id="dishes" viewBox="0 0 44 44">
		<g clip-path="url(#clip0_2_50)">
			<path d="M31.158 14.6574L30.6872 13.1258C30.0892 11.3861 28.1775 10.4549 26.4173 11.046C25.4271 11.3785 24.6495 12.1471 24.3131 13.1258L23.8423 14.6574C23.4461 15.949 23.363 17.3147 23.5996 18.6439C23.8154 19.763 24.5342 20.7245 25.5532 21.2569L25.0259 32.907C24.9553 33.5572 25.1687 34.2064 25.6126 34.6915C26.5671 35.7234 28.1874 35.7952 29.2315 34.8518C29.2879 34.8007 29.342 34.7473 29.3936 34.6915C29.8276 34.2202 30.0406 33.59 29.9803 32.9555L29.4501 21.2554C30.4677 20.7228 31.1853 19.7619 31.4008 18.6439C31.6373 17.3147 31.5542 15.949 31.158 14.6574ZM29.9561 18.3917C29.7973 19.1957 29.2176 19.8553 28.4344 20.1233C28.1372 20.2337 27.9457 20.5207 27.96 20.8343L28.5173 33.07C28.543 33.3101 28.4628 33.5493 28.2973 33.7267C27.8557 34.1588 27.1446 34.1588 26.703 33.7267C26.5292 33.535 26.4503 33.277 26.4874 33.0222L27.0404 20.8343C27.0547 20.5207 26.8632 20.2337 26.5659 20.1233C25.7827 19.8553 25.203 19.1957 25.0442 18.3917C24.8481 17.2881 24.9172 16.1544 25.2459 15.0821L25.7167 13.5498C26.081 12.5763 27.1747 12.079 28.1598 12.4391C28.6806 12.6294 29.091 13.0352 29.2836 13.5498L29.7544 15.0821C30.0828 16.1545 30.1519 17.2881 29.9561 18.3917Z" />
			<path d="M19.8 10.8723C19.395 10.8723 19.0667 11.1969 19.0667 11.5972V17.8205L17.0815 19.7826C16.9347 19.9272 16.8566 20.1266 16.8667 20.3313L17.5083 33.0157C17.5236 33.2892 17.4232 33.5568 17.2311 33.7543C16.8297 34.1546 16.176 34.1575 15.7709 33.7606C15.7687 33.7585 15.7666 33.7564 15.7645 33.7543C15.5723 33.5568 15.472 33.2892 15.4873 33.0157L16.1333 20.3313C16.1436 20.1267 16.0658 19.9274 15.9192 19.7826L13.9333 17.8205V11.5972C13.9333 11.1969 13.605 10.8723 13.2 10.8723C12.795 10.8723 12.4667 11.1969 12.4667 11.5972V18.1206C12.4667 18.3128 12.544 18.4971 12.6815 18.633L14.6513 20.5806L14.0257 32.9454C13.9592 34.296 15.013 35.4443 16.3795 35.5101C17.7459 35.5759 18.9077 34.5343 18.9743 33.1837C18.9782 33.1043 18.9782 33.0248 18.9743 32.9455L18.3487 20.5807L20.3185 18.6331C20.456 18.4972 20.5333 18.3129 20.5333 18.1207V11.5973C20.5333 11.1969 20.205 10.8723 19.8 10.8723Z" />
			<path d="M15.4 10.8723C14.995 10.8723 14.6667 11.1969 14.6667 11.5972V17.3958C14.6667 17.796 14.995 18.1206 15.4 18.1206C15.805 18.1206 16.1333 17.796 16.1333 17.3958V11.5972C16.1333 11.1969 15.805 10.8723 15.4 10.8723Z" />
			<path d="M17.6 10.8723C17.195 10.8723 16.8667 11.1969 16.8667 11.5972V17.3958C16.8667 17.796 17.195 18.1206 17.6 18.1206C18.005 18.1206 18.3333 17.796 18.3333 17.3958V11.5972C18.3333 11.1969 18.005 10.8723 17.6 10.8723Z" />
			<path d="M22 0C9.84977 0 0 9.73546 0 21.7447C0 33.7539 9.84977 43.4894 22 43.4894C34.1502 43.4894 44 33.7539 44 21.7447C43.9863 9.74108 34.1446 0.0135904 22 0ZM22 42.0397C10.6597 42.0397 1.46667 32.9534 1.46667 21.7447C1.46667 10.536 10.6597 1.44965 22 1.44965C33.3403 1.44965 42.5333 10.536 42.5333 21.7447C42.5204 32.948 33.3349 42.027 22 42.0397Z" />
			<path d="M24.3804 35.351C24.3411 34.9525 23.9824 34.6608 23.5792 34.6997C23.5698 34.7006 23.5604 34.7017 23.5509 34.703L23.5539 34.7023C22.5214 34.8208 21.4784 34.8208 20.446 34.7023C20.0436 34.6556 19.6792 34.9403 19.632 35.3383C19.5848 35.7362 19.8727 36.0965 20.2751 36.1432C21.4201 36.2755 22.5768 36.2755 23.7218 36.1432C24.1248 36.1044 24.4197 35.7497 24.3804 35.351Z" />
			<path d="M33.2202 12.4046C32.9599 12.0979 32.4974 12.0578 32.1871 12.3151C32.1861 12.3159 32.1851 12.3168 32.184 12.3176C31.8744 12.5757 31.835 13.0328 32.096 13.3389C36.5175 18.5268 36.1793 26.1981 31.3179 30.9862C31.031 31.2688 31.0302 31.7279 31.3161 32.0114C31.602 32.295 32.0665 32.2958 32.3534 32.0133C37.756 26.6937 38.1327 18.1696 33.2202 12.4046Z" />
			<path d="M17.0859 9.58159C17.0854 9.58159 17.085 9.58058 17.0845 9.58058C17.0838 9.58058 17.083 9.58159 17.0822 9.58159H17.0859Z" />
			<path d="M25.4592 7.65339C22.5932 6.97451 19.5874 7.15698 16.8271 8.17744C16.4479 8.31833 16.2563 8.73637 16.3988 9.11101C16.5062 9.39342 16.7794 9.58033 17.0846 9.58061C17.1723 9.58015 17.2592 9.5643 17.3411 9.53358C19.827 8.61478 22.5337 8.4507 25.1145 9.06245C25.5082 9.15649 25.9045 8.91739 25.9996 8.52825C26.0948 8.13911 25.8529 7.74744 25.4592 7.65339Z" />
			<path d="M12.6492 30.9499C10.1771 28.5106 8.79151 25.1974 8.79994 21.7447C8.7927 18.9862 9.67674 16.2975 11.3233 14.0703C11.5667 13.7503 11.5015 13.2959 11.1778 13.0553C10.854 12.8148 10.3943 12.8792 10.1509 13.1992C10.1466 13.2049 10.1424 13.2106 10.1383 13.2164C5.89842 18.9777 6.5223 26.93 11.6101 31.9763C11.8968 32.2599 12.3619 32.2601 12.6488 31.9767C12.9358 31.6932 12.9359 31.2335 12.6492 30.9499Z" />
		</g>
		<defs>
			<clipPath id="clip0_2_50">
				<rect width="44" height="43.4894" />
			</clipPath>
		</defs>
	</symbol>
	<symbol id="pizza" viewBox="0 0 45 44">
		<path fill-rule="evenodd" clip-rule="evenodd" d="M43.8581 43.7521C43.6233 43.9838 43.2762 44.0611 42.9657 43.9499L7.27138 31.2229C6.0313 31.9812 4.45839 32.1587 3.01576 31.5614C0.621114 30.5694 -0.52022 27.8142 0.471669 25.4193C2.8108 19.7726 6.18805 14.718 10.5099 10.3961C14.8318 6.07425 19.8863 2.69691 25.5331 0.357869C26.1196 0.11501 26.7274 2.67029e-05 27.3259 2.67029e-05C29.1714 0.000111844 30.9261 1.09367 31.6751 2.90204C32.179 4.11875 32.1314 5.42826 31.6494 6.55266L44.0674 42.8624C44.1742 43.1745 44.0929 43.5203 43.8581 43.7521ZM12.676 31.3252L16.4589 32.6739C16.9031 32.2007 17.1195 31.5493 17.0328 30.8905C16.9563 30.3105 16.6587 29.7948 16.1945 29.4385C15.7304 29.0823 15.1556 28.9284 14.5751 29.0047C13.9951 29.081 13.4795 29.3786 13.1233 29.8429C12.7951 30.2706 12.6389 30.7924 12.676 31.3252ZM30.0871 3.5599C29.4579 2.04069 27.7098 1.31667 26.1909 1.94608C15.1875 6.50377 6.61756 15.0738 2.0597 26.0772C1.75489 26.8131 1.75489 27.6236 2.0597 28.3595C2.36452 29.0954 2.93764 29.6685 3.67352 29.9733C4.4094 30.2782 5.21996 30.2782 5.95585 29.9733C6.69173 29.6685 7.26484 29.0954 7.56966 28.3595C9.52053 23.6496 12.3376 19.4336 15.9425 15.8287C19.5474 12.2238 23.7633 9.4069 28.4732 7.45595C29.9924 6.8268 30.7165 5.07892 30.0871 3.5599ZM37.7221 29.6202C37.6443 29.6221 37.5664 29.6266 37.4887 29.6367C36.9088 29.7131 36.3931 30.0108 36.037 30.475C35.6808 30.9391 35.5267 31.5143 35.603 32.0943C35.7607 33.2917 36.8629 34.1375 38.0607 33.9801C38.4303 33.9314 38.7772 33.7881 39.0731 33.5701L37.7221 29.6202ZM39.6443 35.241C39.2256 35.469 38.7656 35.6209 38.285 35.6841C36.1477 35.9663 34.1803 34.4557 33.899 32.3186C33.7627 31.2834 34.0377 30.257 34.6734 29.4286C35.2857 28.6307 36.1622 28.1094 37.151 27.9504L35.4429 22.9558L33.4786 24.4631C33.1021 24.7519 32.5625 24.6811 32.2736 24.3045C31.9847 23.9279 32.0558 23.3885 32.4323 23.0996L34.8561 21.2397L30.4137 8.24984C30.0411 8.57382 29.612 8.84487 29.1313 9.04399C20.0237 12.8165 12.9304 19.9098 9.15804 29.0173C9.0269 29.334 8.86397 29.6281 8.67602 29.899L10.9773 30.7195C11.0577 30.0262 11.3238 29.3648 11.7598 28.7967C12.3954 27.9682 13.3157 27.437 14.3509 27.3008C14.5243 27.2779 14.6972 27.2666 14.8693 27.2666C15.7242 27.2666 16.5512 27.5459 17.2409 28.075C18.0694 28.7107 18.6006 29.6309 18.737 30.6663C18.8593 31.5957 18.6423 32.5162 18.1553 33.2788L28.838 37.0877L29.2428 36.1103C29.38 35.7794 29.6999 35.5795 30.0371 35.5795C30.1467 35.5795 30.2581 35.6007 30.3657 35.6452C30.8041 35.8268 31.0123 36.3296 30.8307 36.7681L30.459 37.6657L41.8645 41.7324L39.6443 35.241ZM9.38766 20.9548L9.38153 20.964C9.11839 21.3587 8.58583 21.4647 8.19095 21.2018C7.79676 20.9393 7.68985 20.4066 7.95076 20.0117C8.11533 19.7589 8.39067 19.621 8.67194 19.621C8.8311 19.621 8.99206 19.6651 9.13575 19.7575C9.53501 20.0142 9.6506 20.5459 9.39399 20.9451L9.38766 20.9548ZM5.84958 27.6473C6.49678 26.0851 7.24959 24.5483 8.08705 23.08C8.32226 22.6678 8.17857 22.143 7.76633 21.9078C7.63209 21.8312 7.48574 21.7947 7.34137 21.7947C7.04282 21.7947 6.7527 21.9506 6.59414 22.2286C5.72119 23.7591 4.93641 25.361 4.26181 26.9896C4.08013 27.428 4.28827 27.9308 4.72681 28.1123C5.16501 28.2939 5.668 28.086 5.84958 27.6473ZM27.0054 33.0011C26.8351 33.0237 26.6621 33.035 26.4912 33.035C24.539 33.035 22.8744 31.5736 22.6193 29.6358C22.338 27.4987 23.8476 25.531 25.9847 25.2497C26.155 25.2272 26.328 25.2158 26.4989 25.2158C28.451 25.2158 30.1156 26.6772 30.3708 28.6152C30.6521 30.7523 29.1424 32.7198 27.0054 33.0011ZM28.6668 28.8395C28.5238 27.7536 27.5918 26.9347 26.4989 26.9347C26.4028 26.9347 26.3053 26.941 26.2091 26.9537C25.0116 27.1114 24.1658 28.2139 24.3234 29.4115C24.4664 30.4974 25.3983 31.3162 26.4912 31.3162C26.5873 31.3162 26.6848 31.3098 26.781 31.2971C27.9785 31.1393 28.8244 30.0369 28.6668 28.8395ZM26.2676 22.3455C26.4384 22.3455 26.6113 22.3342 26.7817 22.3116C28.9187 22.0301 30.4285 20.0627 30.147 17.9257C29.8919 15.9877 28.2272 14.5263 26.275 14.5263C26.1042 14.5263 25.9313 14.5376 25.7611 14.56C24.7258 14.6964 23.8056 15.2276 23.17 16.0561C22.5343 16.8846 22.2593 17.9109 22.3957 18.9462C22.6507 20.8841 24.3153 22.3455 26.2676 22.3455ZM26.2751 16.2451C27.3681 16.2451 28.3002 17.064 28.4432 18.15C28.6007 19.3474 27.7547 20.4499 26.5574 20.6076C26.4612 20.6203 26.3637 20.6267 26.2676 20.6267C25.1747 20.6267 24.2427 19.8078 24.0997 18.7219C24.0233 18.1417 24.1774 17.5666 24.5336 17.1025C24.8898 16.6383 25.4055 16.3406 25.9855 16.2641C26.0816 16.2515 26.1792 16.2451 26.2751 16.2451ZM21.1138 25.8719L18.4724 26.2197C18.0021 26.2821 17.5701 25.9504 17.5082 25.4799C17.4461 25.0093 17.7774 24.5777 18.2479 24.5157L20.8893 24.1679C20.9274 24.1628 20.9652 24.1604 21.0026 24.1604C21.4272 24.1604 21.7965 24.4752 21.8534 24.9077C21.9155 25.3782 21.5843 25.8099 21.1138 25.8719ZM19.5411 21.3023L19.7743 19.5299C19.8363 19.0593 19.5051 18.6278 19.0345 18.5658C18.9965 18.5607 18.9587 18.5583 18.9213 18.5583C18.4966 18.5583 18.1273 18.8731 18.0705 19.3056L17.8371 21.078C17.7752 21.5486 18.1064 21.9802 18.577 22.0421C19.0476 22.1043 19.4791 21.7729 19.5411 21.3023Z" />
	</symbol>
	<symbol id="sandwich" viewBox="0 0 44 44">
		<path fill-rule="evenodd" clip-rule="evenodd" d="M40.3333 6.59989H41.8C43.015 6.59989 43.9999 7.5849 44 8.79989V10.2665C44 11.0765 43.3434 11.7332 42.5333 11.7332H42.4541L38.8615 43.3494C38.8193 43.7198 38.506 43.9996 38.1332 43.9999H2.18525C0.979039 43.9983 0.00159182 43.0208 -5.61309e-05 41.8146V9.52589C-0.00161253 8.92553 0.367406 8.38653 0.927648 8.17065C1.48691 7.94722 2.12604 8.09322 2.53287 8.53735L3.60941 9.71066C5.38187 9.18927 7.73148 9.98127 9.71958 11.7332H13.9334C14.2739 11.734 14.5691 11.969 14.6461 12.3008L15.8928 17.6666C16.1025 17.9336 16.291 18.2057 16.4692 18.4799L20.0024 19.31L19.1444 11.7333H19.0667C18.2566 11.7333 17.5999 11.0766 17.5999 10.2666V8.79989C17.5999 7.5849 18.585 6.59989 19.8 6.59989H21.2665V5.13328C21.2665 3.91821 22.2515 2.93328 23.4666 2.93328H31.5333V1.46658C31.5333 0.65654 32.1899 -0.00011024 32.9999 -0.00011024H34.0134C34.5697 -0.00234565 35.0787 0.312359 35.3253 0.810967L36.3865 2.93319H38.1332C39.3482 2.93319 40.3333 3.91821 40.3333 5.13319V6.59989ZM34.0134 1.46658H32.9999V2.93328H34.7467L34.0134 1.46658ZM23.4666 4.39989C23.0616 4.39989 22.7333 4.72817 22.7333 5.13319V6.59989H38.8666V5.13319C38.8666 4.72817 38.5383 4.39989 38.1332 4.39989H23.4666ZM20.7262 20.982L20.6799 20.9732L17.3646 20.1943C17.9031 21.4017 18.0469 22.7482 17.7753 24.0421C19.1863 24.0346 20.5645 24.469 21.7162 25.2844L21.3187 21.1227L20.7262 20.982ZM22.1224 27.4677L22.1129 27.4596C21.0369 26.3677 19.6184 25.6787 18.0949 25.5081L24.9442 32.9779C24.9421 32.5233 24.8782 32.0711 24.7543 31.6337C24.3917 30.3778 23.7502 29.2199 22.8777 28.2464C22.6403 27.9734 22.388 27.7134 22.1224 27.4677ZM14.385 18.1382V18.1397C12.6867 16.1941 10.3972 15.1367 8.89164 15.4733L16.3548 23.6096C16.7046 22.1415 15.9676 19.9569 14.385 18.1382ZM13.9334 15.6969L13.3467 13.1999H11.0924C11.4329 13.6251 11.7429 14.0738 12.0201 14.5427C12.7017 14.8495 13.344 15.237 13.9334 15.6969ZM9.66309 13.7455H9.66019C8.2038 12.0742 6.28025 11.0373 4.80619 11.016L7.82096 14.3036C8.45087 14.0185 9.14405 13.9021 9.83249 13.9655C9.80835 13.9353 9.78568 13.9045 9.76313 13.8738C9.7309 13.83 9.69889 13.7865 9.66309 13.7455ZM30.0812 42.5333C30.3661 42.5328 30.6235 42.3636 30.737 42.1025C30.8506 41.8413 30.7987 41.5377 30.6049 41.3291L29.6215 40.257C29.6024 40.2357 29.5848 40.2137 29.5679 40.1917L24.8262 35.0203L24.8166 35.0093L16.1721 25.5852V25.5815L1.45331 9.53328L1.46656 41.8146C1.46656 42.2115 1.7883 42.5333 2.18525 42.5333H23.4666H30.0812ZM26.3999 32.9933C26.4 33.4513 26.3318 33.9069 26.1976 34.3448L29.455 37.8957C29.2906 37.0742 28.9879 36.2867 28.5596 35.5666C28.2469 35.0289 27.8832 34.5225 27.4736 34.0544C27.1442 33.673 26.7852 33.3182 26.3999 32.9933ZM32.1361 42.5333H37.4784L38.2286 35.9333H30.3746C30.8935 37.0552 31.0915 38.299 30.9466 39.5266L31.6851 40.3333C32.2366 40.9238 32.4108 41.7734 32.1361 42.5333ZM29.5951 34.4666H38.3951L40.2292 18.3332H21.3686L21.5226 19.6657L22.1723 19.8197C22.4779 19.892 22.7035 20.1509 22.7333 20.4635L23.3127 26.5743C23.5436 26.798 23.7636 27.0305 23.9836 27.2798C24.931 28.3447 25.6434 29.5974 26.0743 30.956C27.0171 31.534 27.8643 32.2546 28.586 33.0923C28.9568 33.5242 29.2941 33.9836 29.5951 34.4666ZM21.2021 16.8666H40.3956L40.9786 11.7333H20.6213L21.2021 16.8666ZM19.0667 10.2666H42.5333V8.79989C42.5333 8.39487 42.205 8.06658 41.8 8.06658H19.8C19.3949 8.06658 19.0667 8.39487 19.0667 8.79989V10.2666ZM31.2245 32.2594C31.2069 32.26 31.1894 32.2614 31.1718 32.2629C31.1482 32.2648 31.1245 32.2667 31.1006 32.2667C28.5089 32.2667 26.3998 29.635 26.3998 26.4002C26.3998 23.1654 28.5089 20.5335 31.1005 20.5335C31.1328 20.5335 31.1672 20.5386 31.1907 20.5386C31.1975 20.5386 31.2041 20.539 31.2106 20.5395L31.2251 20.5408C31.2365 20.5419 31.2479 20.543 31.2596 20.543C33.5762 20.6405 34.1225 22.8031 34.6945 25.0963C34.7847 25.4563 34.8778 25.8289 34.9798 26.2087C35.4536 27.73 35.1895 29.3853 34.2655 30.6835C33.5724 31.6017 32.5147 32.1738 31.3667 32.2513C31.3308 32.2593 31.2943 32.2645 31.2575 32.2667C31.252 32.2667 31.2465 32.2649 31.241 32.263C31.2355 32.2612 31.23 32.2594 31.2245 32.2594ZM33.2719 25.4511C32.7601 23.4014 32.4264 22.4078 31.6682 22.11C31.3542 22.9973 30.8542 24.7962 31.2809 26.1843C31.3454 26.3948 31.4188 26.6155 31.4921 26.8443C31.9524 28.0181 32.2006 29.2643 32.2254 30.5249C32.5682 30.3487 32.8673 30.0982 33.101 29.7916C33.7448 28.855 33.9163 27.6723 33.5652 26.5914C33.4589 26.202 33.3636 25.8178 33.2719 25.4511ZM29.8803 26.6134C29.5416 25.1577 29.615 23.6363 30.0922 22.22C28.8015 22.8001 27.8666 24.453 27.8665 26.4C27.8665 28.6542 29.1198 30.5155 30.7272 30.7662C30.9069 29.7704 30.4669 28.4174 30.1002 27.2983C30.0225 27.0615 29.9477 26.8334 29.8803 26.6134ZM3.88138 38.5631L3.36292 39.0815C3.17231 39.2657 3.09583 39.5383 3.16294 39.7947C3.23008 40.0512 3.4303 40.2514 3.68665 40.3184C3.94309 40.3856 4.21567 40.3091 4.39985 40.1185L4.91831 39.6C5.19623 39.3123 5.19227 38.8548 4.90937 38.572C4.62656 38.2891 4.1691 38.2852 3.88138 38.5631ZM10.8929 32.5886C11.1794 32.8752 11.1794 33.3398 10.8929 33.6263L10.3736 34.1447C10.1883 34.3299 9.91819 34.4022 9.66507 34.3343C9.41199 34.2664 9.21433 34.0686 9.14661 33.8155C9.07889 33.5624 9.15134 33.2923 9.33671 33.1071L9.85517 32.5886C10.1418 32.3021 10.6064 32.3021 10.8929 32.5886ZM4.39994 31.7482L3.88147 32.2667C3.69086 32.4509 3.61438 32.7234 3.68149 32.9799C3.7486 33.2362 3.94886 33.4365 4.20521 33.5036C4.46164 33.5707 4.73423 33.4942 4.9184 33.3036L5.43686 32.7851C5.71479 32.4974 5.71082 32.04 5.42792 31.7572C5.14509 31.4743 4.68766 31.4703 4.39994 31.7482ZM3.88147 27.1333L4.39994 26.6149C4.68766 26.337 5.14509 26.341 5.42792 26.6238C5.71082 26.9066 5.71479 27.3641 5.43686 27.6518L4.9184 28.1702C4.73423 28.3608 4.46164 28.4373 4.20521 28.3702C3.94886 28.3031 3.7486 28.1029 3.68149 27.8465C3.61438 27.5901 3.69086 27.3175 3.88147 27.1333ZM11 38.5631L10.4815 39.0815C10.2909 39.2657 10.2145 39.5383 10.2816 39.7947C10.3487 40.0512 10.5489 40.2514 10.8053 40.3184C11.0617 40.3856 11.3343 40.3091 11.5185 40.1185L12.0369 39.6C12.3148 39.3123 12.3109 38.8548 12.028 38.572C11.7452 38.2891 11.2877 38.2852 11 38.5631ZM15.8297 39.0815L16.3481 38.5631C16.6358 38.2852 17.0932 38.2892 17.3761 38.572C17.659 38.8548 17.663 39.3123 17.385 39.6L16.8666 40.1185C16.6824 40.3091 16.4098 40.3856 16.1534 40.3184C15.897 40.2514 15.6968 40.0512 15.6297 39.7947C15.5626 39.5383 15.639 39.2657 15.8297 39.0815Z" />
	</symbol>
	<symbol id="search" viewBox="0 0 21 22">
		<ellipse cx="9.76663" cy="10.6301" rx="8.98856" ry="8.88424" stroke="#363853" stroke-width="1.5" stroke-linecap="round" stroke-linejoin="round" />
		<path d="M16.0184 17.2708L19.5424 20.7448" stroke="#363853" stroke-width="1.5" stroke-linecap="round" stroke-linejoin="round" />
	</symbol>
	<symbol id="cart" viewBox="0 0 21 20">
		<path d="M1 1.17578L3.08 1.5316L4.04301 12.8715C4.12001 13.7976 4.90301 14.5082 5.84301 14.5053H16.752C17.649 14.5072 18.41 13.8549 18.537 12.9772L19.486 6.49532C19.592 5.77083 19.083 5.09872 18.351 4.99395C18.287 4.98505 3.414 4.98011 3.414 4.98011" fill="currentColor" stroke-width="1.5" stroke-linecap="round" stroke-linejoin="round" />
		<path d="M12.375 8.63337H15.1479" fill="currentColor" stroke-width="1.5" stroke-linecap="round" stroke-linejoin="round" />
		<path fill-rule="evenodd" clip-rule="evenodd" d="M5.4043 17.9316C5.70527 17.9316 5.94824 18.1729 5.94824 18.4696C5.94824 18.7673 5.70527 19.0085 5.4043 19.0085C5.10333 19.0085 4.86035 18.7673 4.86035 18.4696C4.86035 18.1729 5.10333 17.9316 5.4043 17.9316Z" fill="currentColor" stroke-width="1.5" stroke-linecap="round" stroke-linejoin="round" />
		<path fill-rule="evenodd" clip-rule="evenodd" d="M16.6846 17.9316C16.9856 17.9316 17.2296 18.1729 17.2296 18.4696C17.2296 18.7673 16.9856 19.0085 16.6846 19.0085C16.3836 19.0085 16.1406 18.7673 16.1406 18.4696C16.1406 18.1729 16.3836 17.9316 16.6846 17.9316Z" fill="currentColor" stroke-width="1.5" stroke-linecap="round" stroke-linejoin="round" />
	</symbol>
	<symbol id="minus" viewBox="0 0 20 20">
		<g clip-path="url(#clip0_3197_329)">
			<path d="M19.1666 9.0368H0.833348C0.373095 9.0368 0 9.40462 0 9.85836C0 10.3121 0.373095 10.6799 0.833348 10.6799H19.1667C19.6269 10.6799 20 10.3121 20 9.85836C20 9.40462 19.6269 9.0368 19.1666 9.0368Z" fill="currentColor" />
		</g>
		<defs>
			<clipPath id="clip0_3197_329">
				<rect width="20" height="19.7167" fill="currentColor" />
			</clipPath>
		</defs>
	</symbol>
	<symbol id="plus" viewBox="0 0 20 20">
		<g clip-path="url(#clip0_3197_336)">
			<path d="M18.9999 9H11.0001V0.999939C11.0001 0.448059 10.552 0 9.99994 0C9.44806 0 9 0.448059 9 0.999939V9H0.999939C0.448059 9 0 9.44806 0 9.99994C0 10.552 0.448059 11.0001 0.999939 11.0001H9V18.9999C9 19.552 9.44806 20.0001 9.99994 20.0001C10.552 20.0001 11.0001 19.552 11.0001 18.9999V11.0001H18.9999C19.552 11.0001 20.0001 10.552 20.0001 9.99994C20.0001 9.44806 19.552 9 18.9999 9Z" fill="currentColor" />
		</g>
		<defs>
			<clipPath id="clip0_3197_336">
				<rect width="20" height="20" fill="currentColor" />
			</clipPath>
		</defs>
	</symbol>
	<symbol id="arrow-right" viewBox="0 0 11 18">
		<path d="M10.7836 8.42911L1.77616 0.220559C1.48058 -0.0735196 1.00121 -0.0735196 0.705632 0.220559C0.410053 0.514615 0.410053 0.991755 0.705632 1.28583L9.16999 9.00002L0.706379 16.7142C0.4108 17.0083 0.4108 17.4854 0.706379 17.7795C1.00196 18.0735 1.48132 18.0735 1.77688 17.7795L10.7844 9.57091C10.9419 9.41414 11.0095 9.20631 10.9989 9.00077C11.0087 8.79446 10.9412 8.58665 10.7836 8.42911Z" fill="currentColor" />
	</symbol>
	<symbol id="arrow-left" viewBox="0 0 11 18">
		<path d="M0.216369 9.57135L9.22384 17.7799C9.51942 18.074 9.99879 18.074 10.2944 17.7799C10.5899 17.4858 10.5899 17.0087 10.2944 16.7146L1.83001 9.00044L10.2936 1.28628C10.5892 0.992195 10.5892 0.515057 10.2936 0.220999C9.99804 -0.0730572 9.51867 -0.0730573 9.22312 0.220999L0.21562 8.42955C0.0580805 8.58632 -0.00946155 8.79415 0.00106032 8.99969C-0.00873489 9.206 0.0587852 9.41381 0.216369 9.57135Z" fill="currentColor" />
	</symbol>
	<symbol id="arrow-down" viewBox="0 0 11 6">
		<path d="M5.03869 5.8407L0.160196 0.940251C-0.0533989 0.725223 -0.0533989 0.376843 0.160197 0.161271C0.373792 -0.0537571 0.720727 -0.053757 0.934322 0.161271L5.42573 4.67302L9.91713 0.161815C10.1307 -0.0532136 10.4777 -0.0532136 10.6918 0.161815C10.9054 0.376843 10.9054 0.725766 10.6918 0.940795L5.81331 5.84124C5.60192 6.05301 5.24953 6.05301 5.03869 5.8407Z" fill="currentColor" />
	</symbol>
	<symbol id="eye-show" viewBox="0 0 24 24">
		<path d="M1 12C1 12 5 4 12 4C19 4 23 12 23 12" fill="currentColor" stroke-width="2" stroke-linecap="round" stroke-linejoin="round" />
		<path d="M1 12C1 12 5 20 12 20C19 20 23 12 23 12" fill="currentColor" stroke-width="2" stroke-linecap="round" stroke-linejoin="round" />
		<circle cx="12" cy="12" r="3" fill="currentColor" stroke-width="2" stroke-linecap="round" stroke-linejoin="round" />
	</symbol>
	<symbol id="eye-hide" viewBox="0 0 24 24">
		<path d="M2 2L22 22" fill="currentColor" stroke-width="2" stroke-linecap="round" stroke-linejoin="round" />
		<path d="M6.71277 6.7226C3.66479 8.79527 2 12 2 12C2 12 5.63636 19 12 19C14.0503 19 15.8174 18.2734 17.2711 17.2884M11 5.05822C11.3254 5.02013 11.6588 5 12 5C18.3636 5 22 12 22 12C22 12 21.3082 13.3317 20 14.8335" fill="currentColor" stroke-width="2" stroke-linecap="round" stroke-linejoin="round" />
		<path d="M14 14.2362C13.4692 14.7112 12.7684 15.0001 12 15.0001C10.3431 15.0001 9 13.657 9 12.0001C9 11.1764 9.33193 10.4303 9.86932 9.88818" fill="currentColor" stroke-width="2" stroke-linecap="round" stroke-linejoin="round" />
	</symbol>
	<symbol id="close" viewBox="0 0 24 24">
		<path d="M 4.9902344 3.9902344 A 1.0001 1.0001 0 0 0 4.2929688 5.7070312 L 10.585938 12 L 4.2929688 18.292969 A 1.0001 1.0001 0 1 0 5.7070312 19.707031 L 12 13.414062 L 18.292969 19.707031 A 1.0001 1.0001 0 1 0 19.707031 18.292969 L 13.414062 12 L 19.707031 5.7070312 A 1.0001 1.0001 0 0 0 18.980469 3.9902344 A 1.0001 1.0001 0 0 0 18.292969 4.2929688 L 12 10.585938 L 5.7070312 4.2929688 A 1.0001 1.0001 0 0 0 4.9902344 3.9902344 z" fill="currentColor" />
	</symbol>
	<symbol id="bin" viewBox="0 0 482.428 482.429">
		<path d="M381.163,57.799h-75.094C302.323,25.316,274.686,0,241.214,0c-33.471,0-61.104,25.315-64.85,57.799h-75.098
			c-30.39,0-55.111,24.728-55.111,55.117v2.828c0,23.223,14.46,43.1,34.83,51.199v260.369c0,30.39,24.724,55.117,55.112,55.117
			h210.236c30.389,0,55.111-24.729,55.111-55.117V166.944c20.369-8.1,34.83-27.977,34.83-51.199v-2.828
			C436.274,82.527,411.551,57.799,381.163,57.799z M241.214,26.139c19.037,0,34.927,13.645,38.443,31.66h-76.879
			C206.293,39.783,222.184,26.139,241.214,26.139z M375.305,427.312c0,15.978-13,28.979-28.973,28.979H136.096
			c-15.973,0-28.973-13.002-28.973-28.979V170.861h268.182V427.312z M410.135,115.744c0,15.978-13,28.979-28.973,28.979H101.266
			c-15.973,0-28.973-13.001-28.973-28.979v-2.828c0-15.978,13-28.979,28.973-28.979h279.897c15.973,0,28.973,13.001,28.973,28.979
			V115.744z" />
		<path d="M171.144,422.863c7.218,0,13.069-5.853,13.069-13.068V262.641c0-7.216-5.852-13.07-13.069-13.07
			c-7.217,0-13.069,5.854-13.069,13.07v147.154C158.074,417.012,163.926,422.863,171.144,422.863z" />
		<path d="M241.214,422.863c7.218,0,13.07-5.853,13.07-13.068V262.641c0-7.216-5.854-13.07-13.07-13.07
			c-7.217,0-13.069,5.854-13.069,13.07v147.154C228.145,417.012,233.996,422.863,241.214,422.863z" />
		<path d="M311.284,422.863c7.217,0,13.068-5.853,13.068-13.068V262.641c0-7.216-5.852-13.07-13.068-13.07
			c-7.219,0-13.07,5.854-13.07,13.07v147.154C298.213,417.012,304.067,422.863,311.284,422.863z" />
	</symbol>
	<symbol id="edit" viewBox="0 0 512 512">
		<path d="m495.7 135.7-79.4-87.4c-7.7-8.5-22.5-8.5-30.2 0l-49 53.9V31.4c0-11.3-9.1-20.4-20.4-20.4H156.2c-5.2 0-10.2 2-14 5.5l-124.8 117c-4.1 3.9-6.4 9.3-6.4 14.9v332.2c0 11.3 9.1 20.4 20.4 20.4h285.2c11.3 0 20.4-9.1 20.4-20.4V339.1c0-.5 0-.9-.1-1.4l158.7-174.6c7.2-7.7 7.2-19.6.1-27.4zM135.8 78.5v58H74l61.8-58zm160.4 381.7H51.8V177.3h104.4c11.3 0 20.4-9.1 20.4-20.4V51.8h119.6v95.3L177.3 277.9c-2.6 2.9-4.4 6.5-5 10.3L153.8 398c-1.1 6.7 1.1 13.6 6.1 18.2 7.7 7.2 17.1 5.4 18.6 5.1l97.9-22.4c8.7-.8 19.8-16.4 19.8-16.4v77.7zM261 360.6l-61.9 14.1 12.4-73.7L401.1 92.4l51.8 57L261 360.6z" />
	</symbol>
	<symbol id="empty-box" viewBox="0 0 122.88 117.85">
		<path d="M60.05 68.41 18.02 46.33 6.2 60.47c14.91 7.88 29.82 15.76 44.74 23.65l9.11-15.71zm3.25-44.94L21.12 44.39 62.24 66l41.2-21.65-23.63-12.36-16.51-8.52zM15.89 43.95.39 29.27c-.57-.65-.51-1.65.15-2.23.09-.08.2-.15.3-.21L47.95.18c.75-.4 1.68-.12 2.1.61l13.23 18.22L72.1 2.49c.41-.77 1.36-1.07 2.13-.66l47.8 25.27c.14.08.27.17.39.29.61.62.6 1.62-.02 2.23l-14.16 13.91 13.71 16.41c.56.67.47 1.67-.2 2.22-.1.08-.21.15-.32.21l-12.31 6.51v24.4c0 .66-.4 1.22-.98 1.46l-44.51 22.59a1.58 1.58 0 0 1-2.58-.35l-44.59-22.3a1.58 1.58 0 0 1-.87-1.41V69L3.05 62.37c-.11-.06-.22-.13-.32-.21-.67-.56-.76-1.56-.2-2.22l13.36-15.99zm44.95-22.89L48.11 3.67 4.07 28.7l14.39 13.4 42.38-21.04zm4.91.02L80.5 28.8l25.08 12.93 13.07-12.84-44.5-23.54-8.4 15.73zm40.72 25.25L64.44 68.41l9.11 15.7 44.74-23.65-11.82-14.13z" />
	</symbol>
</svg>
